<svg version="1.0" preserveAspectRatio="xMidYMid meet" viewBox="0 0 763.02 134.45999883800002" zoomAndPan="magnify" xmlns:xlink="http://www.w3.org/1999/xlink" xmlns="http://www.w3.org/2000/svg" style="max-height: 500px" width="763.02" height="134.45999883800002"><defs><g/></defs><g fill-opacity="1" fill="#ffffff"><g transform="translate(128.892683, 108.50004)"><g><path d="M 29.5625 -80.5 L 29.5625 -32.203125 C 29.5625 -30.585938 30.132812 -29.203125 31.28125 -28.046875 C 32.425781 -26.898438 33.804688 -26.328125 35.421875 -26.328125 C 37.023438 -26.328125 38.398438 -26.898438 39.546875 -28.046875 C 40.703125 -29.203125 41.28125 -30.585938 41.28125 -32.203125 C 41.28125 -33.804688 40.703125 -35.203125 39.546875 -36.390625 C 38.398438 -37.585938 37.023438 -38.1875 35.421875 -38.1875 L 31.171875 -38.1875 L 31.171875 -66.46875 L 35.421875 -66.46875 C 40.171875 -66.46875 44.597656 -65.566406 48.703125 -63.765625 C 52.804688 -61.960938 56.425781 -59.453125 59.5625 -56.234375 C 62.707031 -53.015625 65.160156 -49.332031 66.921875 -45.1875 C 68.691406 -41.050781 69.578125 -36.609375 69.578125 -31.859375 C 69.578125 -27.179688 68.691406 -22.769531 66.921875 -18.625 C 65.160156 -14.488281 62.707031 -10.847656 59.5625 -7.703125 C 56.425781 -4.554688 52.804688 -2.101562 48.703125 -0.34375 C 44.597656 1.414062 40.171875 2.296875 35.421875 2.296875 C 30.742188 2.296875 26.332031 1.414062 22.1875 -0.34375 C 18.050781 -2.101562 14.410156 -4.554688 11.265625 -7.703125 C 8.128906 -10.847656 5.675781 -14.488281 3.90625 -18.625 C 2.144531 -22.769531 1.265625 -27.179688 1.265625 -31.859375 L 1.265625 -80.5 Z M 29.5625 -80.5"/></g></g></g><g fill-opacity="1" fill="#ffffff"><g transform="translate(199.500312, 108.50004)"><g><path d="M 39.671875 -64.515625 L 68.1875 -64.515625 L 68.1875 -31.515625 C 68.1875 -25.992188 67.25 -21.140625 65.375 -16.953125 C 63.5 -12.773438 60.953125 -9.285156 57.734375 -6.484375 C 54.515625 -3.691406 50.910156 -1.601562 46.921875 -0.21875 C 42.929688 1.15625 38.867188 1.84375 34.734375 1.84375 C 30.515625 1.84375 26.410156 1.15625 22.421875 -0.21875 C 18.429688 -1.601562 14.828125 -3.691406 11.609375 -6.484375 C 8.390625 -9.285156 5.84375 -12.773438 3.96875 -16.953125 C 2.09375 -21.140625 1.15625 -25.992188 1.15625 -31.515625 L 1.15625 -64.515625 L 29.671875 -64.515625 L 29.671875 -32.65625 C 29.671875 -30.664062 30.207031 -29.171875 31.28125 -28.171875 C 32.351562 -27.179688 33.503906 -26.6875 34.734375 -26.6875 C 35.953125 -26.6875 37.078125 -27.179688 38.109375 -28.171875 C 39.148438 -29.171875 39.671875 -30.664062 39.671875 -32.65625 Z M 39.671875 -64.515625"/></g></g></g><g fill-opacity="1" fill="#ffffff"><g transform="translate(268.842979, 108.50004)"><g><path d="M 1.15625 -64.515625 L 29.4375 -64.515625 L 29.4375 0 L 1.15625 0 Z M 1.15625 -64.515625"/></g></g></g><g fill-opacity="1" fill="#ffffff"><g transform="translate(299.431948, 108.50004)"><g><path d="M 1.15625 -80.609375 L 29.4375 -80.609375 L 29.4375 0 L 1.15625 0 Z M 1.15625 -80.609375"/></g></g></g><g fill-opacity="1" fill="#ffffff"><g transform="translate(330.020917, 108.50004)"><g><path d="M 69.109375 -80.5 L 69.109375 -32.203125 C 69.109375 -27.523438 68.226562 -23.113281 66.46875 -18.96875 C 64.707031 -14.832031 62.253906 -11.191406 59.109375 -8.046875 C 55.960938 -4.898438 52.335938 -2.445312 48.234375 -0.6875 C 44.140625 1.070312 39.710938 1.953125 34.953125 1.953125 C 30.273438 1.953125 25.867188 1.070312 21.734375 -0.6875 C 17.597656 -2.445312 13.972656 -4.898438 10.859375 -8.046875 C 7.753906 -11.191406 5.320312 -14.832031 3.5625 -18.96875 C 1.800781 -23.113281 0.921875 -27.523438 0.921875 -32.203125 C 0.921875 -36.953125 1.800781 -41.378906 3.5625 -45.484375 C 5.320312 -49.585938 7.753906 -53.207031 10.859375 -56.34375 C 13.972656 -59.488281 17.597656 -61.941406 21.734375 -63.703125 C 25.867188 -65.472656 30.273438 -66.359375 34.953125 -66.359375 L 39.21875 -66.359375 L 39.21875 -38.0625 L 34.953125 -38.0625 C 33.347656 -38.0625 31.988281 -37.484375 30.875 -36.328125 C 29.757812 -35.179688 29.203125 -33.804688 29.203125 -32.203125 C 29.203125 -30.585938 29.757812 -29.203125 30.875 -28.046875 C 31.988281 -26.898438 33.347656 -26.328125 34.953125 -26.328125 C 36.640625 -26.328125 38.039062 -26.898438 39.15625 -28.046875 C 40.269531 -29.203125 40.828125 -30.585938 40.828125 -32.203125 L 40.828125 -80.5 Z M 69.109375 -80.5"/></g></g></g><g fill-opacity="1" fill="#ffffff"><g transform="translate(400.28354, 108.50004)"><g><path d="M 1.15625 -64.515625 L 29.4375 -64.515625 L 29.4375 0 L 1.15625 0 Z M 1.15625 -64.515625"/></g></g></g><g fill-opacity="1" fill="#ffffff"><g transform="translate(430.87252, 108.50004)"><g><path d="M 1.03125 15.984375 L 1.03125 -32.3125 C 1.03125 -37.0625 1.910156 -41.488281 3.671875 -45.59375 C 5.441406 -49.695312 7.894531 -53.320312 11.03125 -56.46875 C 14.175781 -59.613281 17.816406 -62.066406 21.953125 -63.828125 C 26.097656 -65.585938 30.507812 -66.46875 35.1875 -66.46875 C 39.9375 -66.46875 44.363281 -65.585938 48.46875 -63.828125 C 52.570312 -62.066406 56.195312 -59.613281 59.34375 -56.46875 C 62.488281 -53.320312 64.941406 -49.695312 66.703125 -45.59375 C 68.460938 -41.488281 69.34375 -37.0625 69.34375 -32.3125 C 69.34375 -27.632812 68.460938 -23.222656 66.703125 -19.078125 C 64.941406 -14.941406 62.488281 -11.300781 59.34375 -8.15625 C 56.195312 -5.019531 52.570312 -2.566406 48.46875 -0.796875 C 44.363281 0.960938 39.9375 1.84375 35.1875 1.84375 L 30.9375 1.84375 L 30.9375 -26.453125 L 35.1875 -26.453125 C 36.800781 -26.453125 38.179688 -27.023438 39.328125 -28.171875 C 40.484375 -29.328125 41.0625 -30.707031 41.0625 -32.3125 C 41.0625 -33.925781 40.484375 -35.304688 39.328125 -36.453125 C 38.179688 -37.609375 36.800781 -38.1875 35.1875 -38.1875 C 33.582031 -38.1875 32.203125 -37.609375 31.046875 -36.453125 C 29.898438 -35.304688 29.328125 -33.925781 29.328125 -32.3125 L 29.328125 15.984375 Z M 1.03125 15.984375"/></g></g></g><g fill-opacity="1" fill="#ffffff"><g transform="translate(501.250156, 108.50004)"><g><path d="M 37.71875 -29.09375 C 39.40625 -30.007812 40.398438 -31.289062 40.703125 -32.9375 C 41.015625 -34.59375 40.648438 -36.085938 39.609375 -37.421875 C 38.578125 -38.765625 36.875 -39.4375 34.5 -39.4375 C 32.507812 -39.519531 30.992188 -38.96875 29.953125 -37.78125 C 28.921875 -36.59375 28.382812 -35.210938 28.34375 -33.640625 C 28.3125 -32.066406 28.773438 -30.664062 29.734375 -29.4375 C 30.691406 -28.207031 32.203125 -27.59375 34.265625 -27.59375 L 66.8125 -27.59375 L 66.8125 0 L 34.265625 0 C 29.671875 0 25.378906 -0.859375 21.390625 -2.578125 C 17.398438 -4.304688 13.867188 -6.703125 10.796875 -9.765625 C 7.734375 -12.835938 5.335938 -16.363281 3.609375 -20.34375 C 1.890625 -24.332031 1.03125 -28.628906 1.03125 -33.234375 C 1.03125 -39.285156 2.390625 -44.800781 5.109375 -49.78125 C 7.835938 -54.769531 11.710938 -58.78125 16.734375 -61.8125 C 21.753906 -64.84375 27.710938 -66.394531 34.609375 -66.46875 C 38.210938 -66.46875 41.832031 -66.125 45.46875 -65.4375 C 49.113281 -64.75 52.546875 -63.445312 55.765625 -61.53125 C 58.992188 -59.613281 61.679688 -56.773438 63.828125 -53.015625 C 64.742188 -51.398438 65.410156 -49.484375 65.828125 -47.265625 C 66.253906 -45.046875 66.410156 -42.765625 66.296875 -40.421875 C 66.179688 -38.085938 65.703125 -35.898438 64.859375 -33.859375 C 64.015625 -31.828125 62.710938 -30.238281 60.953125 -29.09375 Z M 37.71875 -29.09375"/></g></g></g><g fill-opacity="1" fill="#ffffff"><g transform="translate(569.097893, 108.50004)"><g><path d="M 69.109375 -80.5 L 69.109375 -32.203125 C 69.109375 -27.523438 68.226562 -23.113281 66.46875 -18.96875 C 64.707031 -14.832031 62.253906 -11.191406 59.109375 -8.046875 C 55.960938 -4.898438 52.335938 -2.445312 48.234375 -0.6875 C 44.140625 1.070312 39.710938 1.953125 34.953125 1.953125 C 30.273438 1.953125 25.867188 1.070312 21.734375 -0.6875 C 17.597656 -2.445312 13.972656 -4.898438 10.859375 -8.046875 C 7.753906 -11.191406 5.320312 -14.832031 3.5625 -18.96875 C 1.800781 -23.113281 0.921875 -27.523438 0.921875 -32.203125 C 0.921875 -36.953125 1.800781 -41.378906 3.5625 -45.484375 C 5.320312 -49.585938 7.753906 -53.207031 10.859375 -56.34375 C 13.972656 -59.488281 17.597656 -61.941406 21.734375 -63.703125 C 25.867188 -65.472656 30.273438 -66.359375 34.953125 -66.359375 L 39.21875 -66.359375 L 39.21875 -38.0625 L 34.953125 -38.0625 C 33.347656 -38.0625 31.988281 -37.484375 30.875 -36.328125 C 29.757812 -35.179688 29.203125 -33.804688 29.203125 -32.203125 C 29.203125 -30.585938 29.757812 -29.203125 30.875 -28.046875 C 31.988281 -26.898438 33.347656 -26.328125 34.953125 -26.328125 C 36.640625 -26.328125 38.039062 -26.898438 39.15625 -28.046875 C 40.269531 -29.203125 40.828125 -30.585938 40.828125 -32.203125 L 40.828125 -80.5 Z M 69.109375 -80.5"/></g></g></g><g fill-opacity="1" fill="#ffffff"><g transform="translate(639.360493, 108.50004)"><g><path d="M 1.15625 -64.515625 L 29.4375 -64.515625 L 29.4375 0 L 1.15625 0 Z M 1.15625 -64.515625"/></g></g></g><g fill-opacity="1" fill="#ffffff"><g transform="translate(669.94945, 108.50004)"><g><path d="M 34.390625 -66.46875 C 38.984375 -66.46875 43.273438 -65.601562 47.265625 -63.875 C 51.253906 -62.15625 54.78125 -59.78125 57.84375 -56.75 C 60.90625 -53.71875 63.300781 -50.191406 65.03125 -46.171875 C 66.757812 -42.148438 67.625 -37.835938 67.625 -33.234375 L 67.625 0 L 40.015625 0 L 40.015625 -33.234375 C 40.015625 -34.765625 39.457031 -36.101562 38.34375 -37.25 C 37.238281 -38.40625 35.921875 -38.984375 34.390625 -38.984375 C 32.773438 -38.984375 31.410156 -38.40625 30.296875 -37.25 C 29.191406 -36.101562 28.640625 -34.765625 28.640625 -33.234375 C 28.640625 -31.703125 29.191406 -30.359375 30.296875 -29.203125 C 31.410156 -28.054688 32.773438 -27.484375 34.390625 -27.484375 L 38.40625 -27.484375 L 38.40625 0 L 34.390625 0 C 29.785156 0 25.46875 -0.859375 21.4375 -2.578125 C 17.414062 -4.304688 13.890625 -6.703125 10.859375 -9.765625 C 7.835938 -12.835938 5.460938 -16.363281 3.734375 -20.34375 C 2.015625 -24.332031 1.15625 -28.628906 1.15625 -33.234375 C 1.15625 -37.835938 2.015625 -42.148438 3.734375 -46.171875 C 5.460938 -50.191406 7.835938 -53.71875 10.859375 -56.75 C 13.890625 -59.78125 17.414062 -62.15625 21.4375 -63.875 C 25.46875 -65.601562 29.785156 -66.46875 34.390625 -66.46875 Z M 34.390625 -66.46875"/></g></g></g><g fill-opacity="1" fill="#ffffff"><g transform="translate(110.850752, 116.644848)"><g><path d="M 0 -29.5 L 0 -3.765625 C 0 -2.242188 -0.757812 -1.484375 -2.28125 -1.484375 L -90.40625 -1.484375 C -91.914062 -1.484375 -92.671875 -2.242188 -92.671875 -3.765625 L -92.671875 -29.5 C -92.671875 -31.019531 -91.914062 -31.78125 -90.40625 -31.78125 L -2.28125 -31.78125 C -0.757812 -31.78125 0 -31.019531 0 -29.5 Z M 0 -29.5"/></g></g></g><g fill-opacity="1" fill="#ffffff"><g transform="translate(110.850752, 83.376886)"><g><path d="M -69.3125 -35.640625 L -69.3125 -51.59375 C -69.3125 -55.675781 -68.054688 -58.972656 -65.546875 -61.484375 C -63.035156 -63.992188 -59.734375 -65.25 -55.640625 -65.25 L -2.28125 -65.25 C -0.757812 -65.25 0 -64.488281 0 -62.96875 L 0 -28.015625 C 0 -26.503906 -0.757812 -25.847656 -2.28125 -26.046875 L -67.03125 -33.171875 C -68.550781 -33.234375 -69.3125 -34.054688 -69.3125 -35.640625 Z M 0 -20.59375 L 0 -3.359375 C 0 -2.109375 -0.625 -1.484375 -1.875 -1.484375 L -90.796875 -1.484375 C -92.046875 -1.484375 -92.671875 -2.109375 -92.671875 -3.359375 L -92.671875 -30.6875 C -92.671875 -32.144531 -91.914062 -32.84375 -90.40625 -32.78125 L -2.28125 -23.078125 C -0.757812 -22.878906 0 -22.050781 0 -20.59375 Z M 0 -20.59375"/></g></g></g></svg>