<svg version="1.0" preserveAspectRatio="xMidYMid meet" viewBox="123 542.999975746 147 155.999993032" zoomAndPan="magnify" xmlns:xlink="http://www.w3.org/1999/xlink" xmlns="http://www.w3.org/2000/svg" style="max-height: 500px" width="147" height="155.999993032"><defs><g/><clipPath id="e8086a3895"><rect height="104" y="0" width="118" x="0"/></clipPath></defs><g transform="matrix(1, 0, 0, 1, 129, 569)"><g clip-path="url(#e8086a3895)"><g fill-opacity="1" fill="#ffffff"><g transform="translate(99.113795, 103.087988)"><g><path d="M 0 -22.71875 L 0 -2.890625 C 0 -1.722656 -0.582031 -1.140625 -1.75 -1.140625 L -69.609375 -1.140625 C -70.773438 -1.140625 -71.359375 -1.722656 -71.359375 -2.890625 L -71.359375 -22.71875 C -71.359375 -23.882812 -70.773438 -24.46875 -69.609375 -24.46875 L -1.75 -24.46875 C -0.582031 -24.46875 0 -23.882812 0 -22.71875 Z M 0 -22.71875"/></g></g></g><g fill-opacity="1" fill="#ffffff"><g transform="translate(99.113795, 77.47085)"><g><path d="M 0 -22.71875 L 0 -2.890625 C 0 -1.722656 -0.582031 -1.140625 -1.75 -1.140625 L -69.609375 -1.140625 C -70.773438 -1.140625 -71.359375 -1.722656 -71.359375 -2.890625 L -71.359375 -22.71875 C -71.359375 -23.882812 -70.773438 -24.46875 -69.609375 -24.46875 L -1.75 -24.46875 C -0.582031 -24.46875 0 -23.882812 0 -22.71875 Z M 0 -22.71875"/></g></g></g><g fill-opacity="1" fill="#ffffff"><g transform="translate(99.113795, 51.853713)"><g><path d="M -53.359375 -27.4375 L -53.359375 -39.71875 C -53.359375 -42.863281 -52.390625 -45.398438 -50.453125 -47.328125 C -48.523438 -49.265625 -45.988281 -50.234375 -42.84375 -50.234375 L -1.75 -50.234375 C -0.582031 -50.234375 0 -49.648438 0 -48.484375 L 0 -21.578125 C 0 -20.410156 -0.582031 -19.898438 -1.75 -20.046875 L -51.609375 -25.53125 C -52.773438 -25.582031 -53.359375 -26.21875 -53.359375 -27.4375 Z M 0 -15.859375 L 0 -2.59375 C 0 -1.625 -0.484375 -1.140625 -1.453125 -1.140625 L -69.90625 -1.140625 C -70.875 -1.140625 -71.359375 -1.625 -71.359375 -2.59375 L -71.359375 -23.625 C -71.359375 -24.75 -70.773438 -25.285156 -69.609375 -25.234375 L -1.75 -17.765625 C -0.582031 -17.609375 0 -16.972656 0 -15.859375 Z M 0 -15.859375"/></g></g></g></g></g></svg>